<mxfile host="app.diagrams.net" agent="Mozilla/5.0 (Windows NT 10.0; Win64; x64) AppleWebKit/537.36 (KHTML, like Gecko) Chrome/131.0.0.0 Safari/537.36" version="24.7.16">
  <diagram name="Page-1" id="M_ttk0NiPHCTj8EJICfk">
    <mxGraphModel grid="1" page="1" gridSize="10" guides="1" tooltips="1" connect="1" arrows="1" fold="1" pageScale="1" pageWidth="850" pageHeight="1100" math="0" shadow="0">
      <root>
        <mxCell id="0" />
        <mxCell id="1" parent="0" />
        <mxCell id="Yqg7Q3kHyUWMkCjQQR5E-1" value="Owner_Details" style="rounded=0;whiteSpace=wrap;html=1;fontStyle=1" vertex="1" parent="1">
          <mxGeometry x="325" y="345" width="140" height="60" as="geometry" />
        </mxCell>
        <mxCell id="Yqg7Q3kHyUWMkCjQQR5E-2" value="&lt;b&gt;Per-Address&lt;/b&gt;" style="ellipse;whiteSpace=wrap;html=1;" vertex="1" parent="1">
          <mxGeometry x="375" y="135" width="80" height="50" as="geometry" />
        </mxCell>
        <mxCell id="Yqg7Q3kHyUWMkCjQQR5E-3" value="&lt;b&gt;Pre-Address&lt;/b&gt;" style="ellipse;whiteSpace=wrap;html=1;" vertex="1" parent="1">
          <mxGeometry x="285" y="135" width="80" height="50" as="geometry" />
        </mxCell>
        <mxCell id="Yqg7Q3kHyUWMkCjQQR5E-4" value="&lt;b&gt;NID&lt;/b&gt;" style="ellipse;whiteSpace=wrap;html=1;direction=south;" vertex="1" parent="1">
          <mxGeometry x="225" y="175" width="80" height="50" as="geometry" />
        </mxCell>
        <mxCell id="Yqg7Q3kHyUWMkCjQQR5E-5" value="&lt;b&gt;DOB&lt;/b&gt;" style="ellipse;whiteSpace=wrap;html=1;" vertex="1" parent="1">
          <mxGeometry x="185" y="225" width="80" height="50" as="geometry" />
        </mxCell>
        <mxCell id="Yqg7Q3kHyUWMkCjQQR5E-6" value="&lt;b&gt;Age&lt;/b&gt;" style="ellipse;whiteSpace=wrap;html=1;" vertex="1" parent="1">
          <mxGeometry x="135" y="275" width="80" height="50" as="geometry" />
        </mxCell>
        <mxCell id="Yqg7Q3kHyUWMkCjQQR5E-7" value="&lt;b&gt;Name&lt;/b&gt;" style="ellipse;whiteSpace=wrap;html=1;" vertex="1" parent="1">
          <mxGeometry x="125" y="335" width="80" height="50" as="geometry" />
        </mxCell>
        <mxCell id="Yqg7Q3kHyUWMkCjQQR5E-8" value="&lt;b&gt;Phone_Num&lt;/b&gt;" style="ellipse;whiteSpace=wrap;html=1;" vertex="1" parent="1">
          <mxGeometry x="505" y="205" width="80" height="50" as="geometry" />
        </mxCell>
        <mxCell id="Yqg7Q3kHyUWMkCjQQR5E-9" value="&lt;b&gt;Image&lt;/b&gt;" style="ellipse;whiteSpace=wrap;html=1;" vertex="1" parent="1">
          <mxGeometry x="445" y="165" width="80" height="50" as="geometry" />
        </mxCell>
        <mxCell id="Yqg7Q3kHyUWMkCjQQR5E-10" value="&lt;b&gt;Email&lt;/b&gt;" style="ellipse;whiteSpace=wrap;html=1;" vertex="1" parent="1">
          <mxGeometry x="510" y="265" width="80" height="50" as="geometry" />
        </mxCell>
        <mxCell id="Yqg7Q3kHyUWMkCjQQR5E-11" value="&lt;b&gt;License_Num&lt;/b&gt;" style="ellipse;whiteSpace=wrap;html=1;fontStyle=4" vertex="1" parent="1">
          <mxGeometry x="560" y="315" width="80" height="50" as="geometry" />
        </mxCell>
        <mxCell id="Yqg7Q3kHyUWMkCjQQR5E-12" value="" style="endArrow=none;html=1;rounded=0;exitX=1;exitY=0.5;exitDx=0;exitDy=0;entryX=0;entryY=0.75;entryDx=0;entryDy=0;" edge="1" parent="1" source="Yqg7Q3kHyUWMkCjQQR5E-7" target="Yqg7Q3kHyUWMkCjQQR5E-1">
          <mxGeometry width="50" height="50" relative="1" as="geometry">
            <mxPoint x="485" y="345" as="sourcePoint" />
            <mxPoint x="535" y="295" as="targetPoint" />
          </mxGeometry>
        </mxCell>
        <mxCell id="Yqg7Q3kHyUWMkCjQQR5E-13" value="" style="endArrow=none;html=1;rounded=0;exitX=0.755;exitY=0.96;exitDx=0;exitDy=0;entryX=0;entryY=0.5;entryDx=0;entryDy=0;exitPerimeter=0;" edge="1" parent="1" source="Yqg7Q3kHyUWMkCjQQR5E-5" target="Yqg7Q3kHyUWMkCjQQR5E-1">
          <mxGeometry width="50" height="50" relative="1" as="geometry">
            <mxPoint x="215" y="370" as="sourcePoint" />
            <mxPoint x="325" y="410" as="targetPoint" />
          </mxGeometry>
        </mxCell>
        <mxCell id="Yqg7Q3kHyUWMkCjQQR5E-14" value="" style="endArrow=none;html=1;rounded=0;exitX=0.95;exitY=0.808;exitDx=0;exitDy=0;entryX=0.017;entryY=0.62;entryDx=0;entryDy=0;exitPerimeter=0;entryPerimeter=0;" edge="1" parent="1" source="Yqg7Q3kHyUWMkCjQQR5E-6" target="Yqg7Q3kHyUWMkCjQQR5E-1">
          <mxGeometry width="50" height="50" relative="1" as="geometry">
            <mxPoint x="225" y="380" as="sourcePoint" />
            <mxPoint x="335" y="420" as="targetPoint" />
          </mxGeometry>
        </mxCell>
        <mxCell id="Yqg7Q3kHyUWMkCjQQR5E-15" value="" style="endArrow=none;html=1;rounded=0;entryX=0.109;entryY=0.047;entryDx=0;entryDy=0;entryPerimeter=0;exitX=0.968;exitY=0.325;exitDx=0;exitDy=0;exitPerimeter=0;" edge="1" parent="1" source="Yqg7Q3kHyUWMkCjQQR5E-4" target="Yqg7Q3kHyUWMkCjQQR5E-1">
          <mxGeometry width="50" height="50" relative="1" as="geometry">
            <mxPoint x="281" y="215" as="sourcePoint" />
            <mxPoint x="325" y="395" as="targetPoint" />
          </mxGeometry>
        </mxCell>
        <mxCell id="Yqg7Q3kHyUWMkCjQQR5E-16" value="" style="endArrow=none;html=1;rounded=0;exitX=0.5;exitY=1;exitDx=0;exitDy=0;entryX=0.32;entryY=0.033;entryDx=0;entryDy=0;entryPerimeter=0;" edge="1" parent="1" source="Yqg7Q3kHyUWMkCjQQR5E-3" target="Yqg7Q3kHyUWMkCjQQR5E-1">
          <mxGeometry width="50" height="50" relative="1" as="geometry">
            <mxPoint x="265" y="293" as="sourcePoint" />
            <mxPoint x="335" y="405" as="targetPoint" />
          </mxGeometry>
        </mxCell>
        <mxCell id="Yqg7Q3kHyUWMkCjQQR5E-17" value="" style="endArrow=none;html=1;rounded=0;exitX=0.5;exitY=1;exitDx=0;exitDy=0;entryX=0.5;entryY=0;entryDx=0;entryDy=0;" edge="1" parent="1" source="Yqg7Q3kHyUWMkCjQQR5E-2" target="Yqg7Q3kHyUWMkCjQQR5E-1">
          <mxGeometry width="50" height="50" relative="1" as="geometry">
            <mxPoint x="275" y="303" as="sourcePoint" />
            <mxPoint x="345" y="415" as="targetPoint" />
          </mxGeometry>
        </mxCell>
        <mxCell id="Yqg7Q3kHyUWMkCjQQR5E-18" value="" style="endArrow=none;html=1;rounded=0;exitX=0.375;exitY=1.024;exitDx=0;exitDy=0;entryX=0.697;entryY=-0.007;entryDx=0;entryDy=0;entryPerimeter=0;exitPerimeter=0;" edge="1" parent="1" source="Yqg7Q3kHyUWMkCjQQR5E-9" target="Yqg7Q3kHyUWMkCjQQR5E-1">
          <mxGeometry width="50" height="50" relative="1" as="geometry">
            <mxPoint x="425" y="195" as="sourcePoint" />
            <mxPoint x="395" y="365" as="targetPoint" />
          </mxGeometry>
        </mxCell>
        <mxCell id="Yqg7Q3kHyUWMkCjQQR5E-19" value="" style="endArrow=none;html=1;rounded=0;exitX=0;exitY=1;exitDx=0;exitDy=0;entryX=0.874;entryY=-0.047;entryDx=0;entryDy=0;entryPerimeter=0;" edge="1" parent="1" source="Yqg7Q3kHyUWMkCjQQR5E-8" target="Yqg7Q3kHyUWMkCjQQR5E-1">
          <mxGeometry width="50" height="50" relative="1" as="geometry">
            <mxPoint x="435" y="205" as="sourcePoint" />
            <mxPoint x="405" y="375" as="targetPoint" />
          </mxGeometry>
        </mxCell>
        <mxCell id="Yqg7Q3kHyUWMkCjQQR5E-20" value="" style="endArrow=none;html=1;rounded=0;exitX=0.063;exitY=0.656;exitDx=0;exitDy=0;entryX=1;entryY=0.25;entryDx=0;entryDy=0;exitPerimeter=0;" edge="1" parent="1" source="Yqg7Q3kHyUWMkCjQQR5E-10" target="Yqg7Q3kHyUWMkCjQQR5E-1">
          <mxGeometry width="50" height="50" relative="1" as="geometry">
            <mxPoint x="445" y="215" as="sourcePoint" />
            <mxPoint x="415" y="385" as="targetPoint" />
          </mxGeometry>
        </mxCell>
        <mxCell id="Yqg7Q3kHyUWMkCjQQR5E-21" value="" style="endArrow=none;html=1;rounded=0;exitX=0;exitY=0.5;exitDx=0;exitDy=0;entryX=1;entryY=0.5;entryDx=0;entryDy=0;" edge="1" parent="1" source="Yqg7Q3kHyUWMkCjQQR5E-11" target="Yqg7Q3kHyUWMkCjQQR5E-1">
          <mxGeometry width="50" height="50" relative="1" as="geometry">
            <mxPoint x="455" y="225" as="sourcePoint" />
            <mxPoint x="455" y="385" as="targetPoint" />
          </mxGeometry>
        </mxCell>
        <mxCell id="Yqg7Q3kHyUWMkCjQQR5E-23" value="Fine_Details" style="rounded=0;whiteSpace=wrap;html=1;fontStyle=1" vertex="1" parent="1">
          <mxGeometry x="830" y="220" width="140" height="60" as="geometry" />
        </mxCell>
        <mxCell id="Yqg7Q3kHyUWMkCjQQR5E-25" value="&lt;b&gt;Location&lt;/b&gt;" style="ellipse;whiteSpace=wrap;html=1;" vertex="1" parent="1">
          <mxGeometry x="860" y="70" width="80" height="50" as="geometry" />
        </mxCell>
        <mxCell id="Yqg7Q3kHyUWMkCjQQR5E-26" value="&lt;b&gt;Violation_Time&lt;/b&gt;" style="ellipse;whiteSpace=wrap;html=1;direction=south;" vertex="1" parent="1">
          <mxGeometry x="760" y="110" width="90" height="60" as="geometry" />
        </mxCell>
        <mxCell id="Yqg7Q3kHyUWMkCjQQR5E-27" value="&lt;b&gt;Violation_Type&lt;/b&gt;" style="ellipse;whiteSpace=wrap;html=1;" vertex="1" parent="1">
          <mxGeometry x="700" y="170" width="90" height="50" as="geometry" />
        </mxCell>
        <mxCell id="Yqg7Q3kHyUWMkCjQQR5E-33" value="&lt;b&gt;License_Num&lt;/b&gt;" style="ellipse;whiteSpace=wrap;html=1;fontStyle=4" vertex="1" parent="1">
          <mxGeometry x="940" y="110" width="90" height="50" as="geometry" />
        </mxCell>
        <mxCell id="Yqg7Q3kHyUWMkCjQQR5E-35" value="" style="endArrow=none;html=1;rounded=0;exitX=0.61;exitY=1.032;exitDx=0;exitDy=0;entryX=0;entryY=0.5;entryDx=0;entryDy=0;exitPerimeter=0;" edge="1" parent="1" source="Yqg7Q3kHyUWMkCjQQR5E-27" target="Yqg7Q3kHyUWMkCjQQR5E-23">
          <mxGeometry width="50" height="50" relative="1" as="geometry">
            <mxPoint x="720" y="305" as="sourcePoint" />
            <mxPoint x="830" y="345" as="targetPoint" />
          </mxGeometry>
        </mxCell>
        <mxCell id="Yqg7Q3kHyUWMkCjQQR5E-37" value="" style="endArrow=none;html=1;rounded=0;entryX=0.109;entryY=0.047;entryDx=0;entryDy=0;entryPerimeter=0;exitX=0.968;exitY=0.325;exitDx=0;exitDy=0;exitPerimeter=0;" edge="1" parent="1" source="Yqg7Q3kHyUWMkCjQQR5E-26" target="Yqg7Q3kHyUWMkCjQQR5E-23">
          <mxGeometry width="50" height="50" relative="1" as="geometry">
            <mxPoint x="786" y="150" as="sourcePoint" />
            <mxPoint x="830" y="330" as="targetPoint" />
          </mxGeometry>
        </mxCell>
        <mxCell id="Yqg7Q3kHyUWMkCjQQR5E-38" value="" style="endArrow=none;html=1;rounded=0;exitX=0.5;exitY=1;exitDx=0;exitDy=0;entryX=0.5;entryY=0;entryDx=0;entryDy=0;" edge="1" parent="1" source="Yqg7Q3kHyUWMkCjQQR5E-25" target="Yqg7Q3kHyUWMkCjQQR5E-23">
          <mxGeometry width="50" height="50" relative="1" as="geometry">
            <mxPoint x="770" y="228" as="sourcePoint" />
            <mxPoint x="840" y="340" as="targetPoint" />
          </mxGeometry>
        </mxCell>
        <mxCell id="Yqg7Q3kHyUWMkCjQQR5E-43" value="" style="endArrow=none;html=1;rounded=0;exitX=0.325;exitY=1.016;exitDx=0;exitDy=0;entryX=0.84;entryY=-0.047;entryDx=0;entryDy=0;entryPerimeter=0;exitPerimeter=0;" edge="1" parent="1" source="Yqg7Q3kHyUWMkCjQQR5E-33" target="Yqg7Q3kHyUWMkCjQQR5E-23">
          <mxGeometry width="50" height="50" relative="1" as="geometry">
            <mxPoint x="960" y="160" as="sourcePoint" />
            <mxPoint x="960" y="320" as="targetPoint" />
          </mxGeometry>
        </mxCell>
        <mxCell id="Yqg7Q3kHyUWMkCjQQR5E-44" value="License_ExpiryDate" style="rounded=0;whiteSpace=wrap;html=1;fontStyle=1" vertex="1" parent="1">
          <mxGeometry x="1006" y="520" width="140" height="60" as="geometry" />
        </mxCell>
        <mxCell id="Yqg7Q3kHyUWMkCjQQR5E-45" value="Expiry_Date" style="ellipse;whiteSpace=wrap;html=1;direction=south;" vertex="1" parent="1">
          <mxGeometry x="930" y="445" width="90" height="60" as="geometry" />
        </mxCell>
        <mxCell id="Yqg7Q3kHyUWMkCjQQR5E-46" value="&lt;b&gt;NID&lt;/b&gt;" style="ellipse;whiteSpace=wrap;html=1;" vertex="1" parent="1">
          <mxGeometry x="1025" y="410" width="90" height="50" as="geometry" />
        </mxCell>
        <mxCell id="Yqg7Q3kHyUWMkCjQQR5E-47" value="&lt;b&gt;License_Num&lt;/b&gt;" style="ellipse;whiteSpace=wrap;html=1;fontStyle=4" vertex="1" parent="1">
          <mxGeometry x="1110" y="450" width="90" height="50" as="geometry" />
        </mxCell>
        <mxCell id="Yqg7Q3kHyUWMkCjQQR5E-49" value="" style="endArrow=none;html=1;rounded=0;entryX=0.109;entryY=0.047;entryDx=0;entryDy=0;entryPerimeter=0;exitX=0.968;exitY=0.325;exitDx=0;exitDy=0;exitPerimeter=0;" edge="1" parent="1" source="Yqg7Q3kHyUWMkCjQQR5E-45" target="Yqg7Q3kHyUWMkCjQQR5E-44">
          <mxGeometry width="50" height="50" relative="1" as="geometry">
            <mxPoint x="956" y="490" as="sourcePoint" />
            <mxPoint x="1000" y="670" as="targetPoint" />
          </mxGeometry>
        </mxCell>
        <mxCell id="Yqg7Q3kHyUWMkCjQQR5E-50" value="" style="endArrow=none;html=1;rounded=0;exitX=0.5;exitY=1;exitDx=0;exitDy=0;entryX=0.5;entryY=0;entryDx=0;entryDy=0;" edge="1" parent="1" target="Yqg7Q3kHyUWMkCjQQR5E-44">
          <mxGeometry width="50" height="50" relative="1" as="geometry">
            <mxPoint x="1070" y="460" as="sourcePoint" />
            <mxPoint x="1010" y="680" as="targetPoint" />
          </mxGeometry>
        </mxCell>
        <mxCell id="Yqg7Q3kHyUWMkCjQQR5E-51" value="" style="endArrow=none;html=1;rounded=0;exitX=0.325;exitY=1.016;exitDx=0;exitDy=0;entryX=0.84;entryY=-0.047;entryDx=0;entryDy=0;entryPerimeter=0;exitPerimeter=0;" edge="1" parent="1" source="Yqg7Q3kHyUWMkCjQQR5E-47" target="Yqg7Q3kHyUWMkCjQQR5E-44">
          <mxGeometry width="50" height="50" relative="1" as="geometry">
            <mxPoint x="1130" y="500" as="sourcePoint" />
            <mxPoint x="1130" y="660" as="targetPoint" />
          </mxGeometry>
        </mxCell>
        <mxCell id="Yqg7Q3kHyUWMkCjQQR5E-52" value="Admin" style="rounded=0;whiteSpace=wrap;html=1;fontStyle=1" vertex="1" parent="1">
          <mxGeometry x="-425" y="818.75" width="140" height="60" as="geometry" />
        </mxCell>
        <mxCell id="Yqg7Q3kHyUWMkCjQQR5E-53" value="Admind_id" style="ellipse;whiteSpace=wrap;html=1;direction=south;fontStyle=1" vertex="1" parent="1">
          <mxGeometry x="-515" y="718.75" width="90" height="55" as="geometry" />
        </mxCell>
        <mxCell id="Yqg7Q3kHyUWMkCjQQR5E-54" value="&lt;b&gt;Password&lt;/b&gt;" style="ellipse;whiteSpace=wrap;html=1;" vertex="1" parent="1">
          <mxGeometry x="-375" y="718.75" width="90" height="50" as="geometry" />
        </mxCell>
        <mxCell id="Yqg7Q3kHyUWMkCjQQR5E-56" value="" style="endArrow=none;html=1;rounded=0;exitX=1;exitY=0.5;exitDx=0;exitDy=0;" edge="1" parent="1" source="Yqg7Q3kHyUWMkCjQQR5E-53" target="Yqg7Q3kHyUWMkCjQQR5E-52">
          <mxGeometry width="50" height="50" relative="1" as="geometry">
            <mxPoint x="-209.25" y="589.04" as="sourcePoint" />
            <mxPoint x="-220" y="765.8" as="targetPoint" />
          </mxGeometry>
        </mxCell>
        <mxCell id="Yqg7Q3kHyUWMkCjQQR5E-57" value="" style="endArrow=none;html=1;rounded=0;exitX=0.5;exitY=1;exitDx=0;exitDy=0;entryX=0.75;entryY=0;entryDx=0;entryDy=0;" edge="1" parent="1" source="Yqg7Q3kHyUWMkCjQQR5E-54" target="Yqg7Q3kHyUWMkCjQQR5E-52">
          <mxGeometry width="50" height="50" relative="1" as="geometry">
            <mxPoint x="-94.8100000000004" y="579.9999999999998" as="sourcePoint" />
            <mxPoint x="-210" y="775.8" as="targetPoint" />
          </mxGeometry>
        </mxCell>
        <mxCell id="Yqg7Q3kHyUWMkCjQQR5E-63" value="&lt;b&gt;Home_Page&lt;/b&gt;" style="rounded=0;whiteSpace=wrap;html=1;" vertex="1" parent="1">
          <mxGeometry x="570" y="890" width="120" height="60" as="geometry" />
        </mxCell>
        <mxCell id="Yqg7Q3kHyUWMkCjQQR5E-65" value="EnterLicense&lt;br&gt;Number" style="ellipse;whiteSpace=wrap;html=1;direction=south;fontStyle=1" vertex="1" parent="1">
          <mxGeometry x="370" y="840" width="130" height="70" as="geometry" />
        </mxCell>
        <mxCell id="Yqg7Q3kHyUWMkCjQQR5E-67" value="&lt;b&gt;Fine_Details&lt;/b&gt;" style="ellipse;whiteSpace=wrap;html=1;" vertex="1" parent="1">
          <mxGeometry x="497.5" y="790" width="105" height="60" as="geometry" />
        </mxCell>
        <mxCell id="Yqg7Q3kHyUWMkCjQQR5E-68" value="Contact_Us" style="ellipse;whiteSpace=wrap;html=1;fontStyle=1" vertex="1" parent="1">
          <mxGeometry x="730" y="825" width="120" height="80" as="geometry" />
        </mxCell>
        <mxCell id="Yqg7Q3kHyUWMkCjQQR5E-69" value="&lt;b&gt;Expiry_Details&lt;/b&gt;" style="ellipse;whiteSpace=wrap;html=1;" vertex="1" parent="1">
          <mxGeometry x="620" y="780" width="110" height="70" as="geometry" />
        </mxCell>
        <mxCell id="Yqg7Q3kHyUWMkCjQQR5E-70" value="" style="endArrow=none;html=1;rounded=0;exitX=0.75;exitY=0;exitDx=0;exitDy=0;" edge="1" parent="1" source="Yqg7Q3kHyUWMkCjQQR5E-63">
          <mxGeometry width="50" height="50" relative="1" as="geometry">
            <mxPoint x="580" y="870" as="sourcePoint" />
            <mxPoint x="680" y="850" as="targetPoint" />
          </mxGeometry>
        </mxCell>
        <mxCell id="Yqg7Q3kHyUWMkCjQQR5E-71" value="" style="endArrow=none;html=1;rounded=0;entryX=0.093;entryY=0.833;entryDx=0;entryDy=0;entryPerimeter=0;exitX=1;exitY=0.5;exitDx=0;exitDy=0;" edge="1" parent="1" source="Yqg7Q3kHyUWMkCjQQR5E-63" target="Yqg7Q3kHyUWMkCjQQR5E-68">
          <mxGeometry width="50" height="50" relative="1" as="geometry">
            <mxPoint x="670" y="900" as="sourcePoint" />
            <mxPoint x="690" y="851" as="targetPoint" />
          </mxGeometry>
        </mxCell>
        <mxCell id="Yqg7Q3kHyUWMkCjQQR5E-72" value="" style="endArrow=none;html=1;rounded=0;entryX=0.685;entryY=0.98;entryDx=0;entryDy=0;entryPerimeter=0;exitX=0.25;exitY=0;exitDx=0;exitDy=0;" edge="1" parent="1" source="Yqg7Q3kHyUWMkCjQQR5E-63" target="Yqg7Q3kHyUWMkCjQQR5E-67">
          <mxGeometry width="50" height="50" relative="1" as="geometry">
            <mxPoint x="580" y="870" as="sourcePoint" />
            <mxPoint x="574.8400000000001" y="838.8" as="targetPoint" />
          </mxGeometry>
        </mxCell>
        <mxCell id="Yqg7Q3kHyUWMkCjQQR5E-73" value="" style="endArrow=none;html=1;rounded=0;entryX=0.694;entryY=0.022;entryDx=0;entryDy=0;entryPerimeter=0;exitX=0;exitY=0.5;exitDx=0;exitDy=0;" edge="1" parent="1" source="Yqg7Q3kHyUWMkCjQQR5E-63" target="Yqg7Q3kHyUWMkCjQQR5E-65">
          <mxGeometry width="50" height="50" relative="1" as="geometry">
            <mxPoint x="610" y="900" as="sourcePoint" />
            <mxPoint x="585" y="849" as="targetPoint" />
          </mxGeometry>
        </mxCell>
        <mxCell id="Yqg7Q3kHyUWMkCjQQR5E-74" value="&lt;b&gt;Enter NID&amp;nbsp;&lt;br&gt;&amp;amp; DOB&lt;/b&gt;" style="ellipse;whiteSpace=wrap;html=1;aspect=fixed;" vertex="1" parent="1">
          <mxGeometry x="365" y="680" width="80" height="80" as="geometry" />
        </mxCell>
        <mxCell id="Yqg7Q3kHyUWMkCjQQR5E-75" value="Matches" style="rhombus;whiteSpace=wrap;html=1;fontStyle=1" vertex="1" parent="1">
          <mxGeometry x="360" y="550" width="80" height="80" as="geometry" />
        </mxCell>
        <mxCell id="Yqg7Q3kHyUWMkCjQQR5E-76" value="" style="endArrow=classic;html=1;rounded=0;entryX=0.5;entryY=1;entryDx=0;entryDy=0;exitX=0.071;exitY=0.738;exitDx=0;exitDy=0;exitPerimeter=0;" edge="1" parent="1" source="Yqg7Q3kHyUWMkCjQQR5E-65" target="Yqg7Q3kHyUWMkCjQQR5E-74">
          <mxGeometry width="50" height="50" relative="1" as="geometry">
            <mxPoint x="600" y="670" as="sourcePoint" />
            <mxPoint x="650" y="620" as="targetPoint" />
          </mxGeometry>
        </mxCell>
        <mxCell id="Yqg7Q3kHyUWMkCjQQR5E-78" value="" style="endArrow=classic;html=1;rounded=0;exitX=0.5;exitY=0;exitDx=0;exitDy=0;entryX=0.536;entryY=0.917;entryDx=0;entryDy=0;entryPerimeter=0;" edge="1" parent="1" source="Yqg7Q3kHyUWMkCjQQR5E-75" target="Yqg7Q3kHyUWMkCjQQR5E-1">
          <mxGeometry width="50" height="50" relative="1" as="geometry">
            <mxPoint x="670" y="600" as="sourcePoint" />
            <mxPoint x="400" y="410" as="targetPoint" />
          </mxGeometry>
        </mxCell>
        <mxCell id="Yqg7Q3kHyUWMkCjQQR5E-79" value="&lt;b&gt;YES&lt;/b&gt;" style="text;html=1;align=center;verticalAlign=middle;whiteSpace=wrap;rounded=0;" vertex="1" parent="1">
          <mxGeometry x="340" y="530" width="60" height="30" as="geometry" />
        </mxCell>
        <mxCell id="Yqg7Q3kHyUWMkCjQQR5E-81" value="" style="endArrow=classic;html=1;rounded=0;entryX=1;entryY=0.5;entryDx=0;entryDy=0;exitX=1;exitY=0.5;exitDx=0;exitDy=0;" edge="1" parent="1" source="Yqg7Q3kHyUWMkCjQQR5E-75" target="Yqg7Q3kHyUWMkCjQQR5E-74">
          <mxGeometry width="50" height="50" relative="1" as="geometry">
            <mxPoint x="670" y="600" as="sourcePoint" />
            <mxPoint x="720" y="550" as="targetPoint" />
            <Array as="points">
              <mxPoint x="550" y="590" />
              <mxPoint x="550" y="720" />
            </Array>
          </mxGeometry>
        </mxCell>
        <mxCell id="Yqg7Q3kHyUWMkCjQQR5E-83" value="" style="endArrow=classic;html=1;rounded=0;entryX=0.5;entryY=1;entryDx=0;entryDy=0;" edge="1" parent="1" target="Yqg7Q3kHyUWMkCjQQR5E-75">
          <mxGeometry width="50" height="50" relative="1" as="geometry">
            <mxPoint x="398" y="684" as="sourcePoint" />
            <mxPoint x="720" y="550" as="targetPoint" />
          </mxGeometry>
        </mxCell>
        <mxCell id="Yqg7Q3kHyUWMkCjQQR5E-84" value="&lt;b&gt;NO&lt;/b&gt;" style="text;html=1;align=center;verticalAlign=middle;whiteSpace=wrap;rounded=0;" vertex="1" parent="1">
          <mxGeometry x="440" y="586.25" width="60" height="30" as="geometry" />
        </mxCell>
        <mxCell id="Yqg7Q3kHyUWMkCjQQR5E-85" value="&lt;b&gt;Please Try Again&lt;/b&gt;" style="text;html=1;align=center;verticalAlign=middle;whiteSpace=wrap;rounded=0;" vertex="1" parent="1">
          <mxGeometry x="455" y="680" width="60" height="30" as="geometry" />
        </mxCell>
        <mxCell id="Yqg7Q3kHyUWMkCjQQR5E-91" value="" style="endArrow=none;dashed=1;html=1;dashPattern=1 3;strokeWidth=2;rounded=0;entryX=0.668;entryY=0.995;entryDx=0;entryDy=0;entryPerimeter=0;exitX=0;exitY=0.5;exitDx=0;exitDy=0;" edge="1" parent="1" source="Yqg7Q3kHyUWMkCjQQR5E-67" target="Yqg7Q3kHyUWMkCjQQR5E-74">
          <mxGeometry width="50" height="50" relative="1" as="geometry">
            <mxPoint x="800" y="760" as="sourcePoint" />
            <mxPoint x="850" y="710" as="targetPoint" />
          </mxGeometry>
        </mxCell>
        <mxCell id="Yqg7Q3kHyUWMkCjQQR5E-92" value="" style="endArrow=none;dashed=1;html=1;rounded=0;" edge="1" parent="1" source="Yqg7Q3kHyUWMkCjQQR5E-69">
          <mxGeometry width="50" height="50" relative="1" as="geometry">
            <mxPoint x="800" y="760" as="sourcePoint" />
            <mxPoint x="440" y="740" as="targetPoint" />
          </mxGeometry>
        </mxCell>
        <mxCell id="Yqg7Q3kHyUWMkCjQQR5E-93" value="" style="endArrow=none;dashed=1;html=1;dashPattern=1 3;strokeWidth=2;rounded=0;exitX=0.5;exitY=0;exitDx=0;exitDy=0;entryX=0.25;entryY=1;entryDx=0;entryDy=0;" edge="1" parent="1" target="Yqg7Q3kHyUWMkCjQQR5E-23">
          <mxGeometry width="50" height="50" relative="1" as="geometry">
            <mxPoint x="846.9999999999998" y="280.99999999999943" as="sourcePoint" />
            <mxPoint x="770" y="510" as="targetPoint" />
          </mxGeometry>
        </mxCell>
        <mxCell id="Yqg7Q3kHyUWMkCjQQR5E-94" value="" style="endArrow=none;dashed=1;html=1;rounded=0;exitX=0.5;exitY=0;exitDx=0;exitDy=0;entryX=0;entryY=0.5;entryDx=0;entryDy=0;" edge="1" parent="1" source="Yqg7Q3kHyUWMkCjQQR5E-110" target="Yqg7Q3kHyUWMkCjQQR5E-44">
          <mxGeometry width="50" height="50" relative="1" as="geometry">
            <mxPoint x="850" y="690" as="sourcePoint" />
            <mxPoint x="1000" y="550" as="targetPoint" />
          </mxGeometry>
        </mxCell>
        <mxCell id="Yqg7Q3kHyUWMkCjQQR5E-96" value="&lt;b&gt;Contact_Us_Page&lt;/b&gt;" style="rounded=1;whiteSpace=wrap;html=1;" vertex="1" parent="1">
          <mxGeometry x="1080" y="830" width="120" height="60" as="geometry" />
        </mxCell>
        <mxCell id="Yqg7Q3kHyUWMkCjQQR5E-97" value="&lt;b&gt;Email&lt;/b&gt;" style="ellipse;whiteSpace=wrap;html=1;" vertex="1" parent="1">
          <mxGeometry x="1020" y="750" width="90" height="50" as="geometry" />
        </mxCell>
        <mxCell id="Yqg7Q3kHyUWMkCjQQR5E-98" value="&lt;b&gt;Phone_Num&lt;/b&gt;" style="ellipse;whiteSpace=wrap;html=1;" vertex="1" parent="1">
          <mxGeometry x="1120" y="740" width="90" height="50" as="geometry" />
        </mxCell>
        <mxCell id="Yqg7Q3kHyUWMkCjQQR5E-99" value="" style="endArrow=none;html=1;rounded=0;entryX=0.5;entryY=1;entryDx=0;entryDy=0;exitX=0.183;exitY=-0.013;exitDx=0;exitDy=0;exitPerimeter=0;" edge="1" parent="1" source="Yqg7Q3kHyUWMkCjQQR5E-96" target="Yqg7Q3kHyUWMkCjQQR5E-97">
          <mxGeometry width="50" height="50" relative="1" as="geometry">
            <mxPoint x="980" y="810" as="sourcePoint" />
            <mxPoint x="1030" y="760" as="targetPoint" />
          </mxGeometry>
        </mxCell>
        <mxCell id="Yqg7Q3kHyUWMkCjQQR5E-100" value="" style="endArrow=none;html=1;rounded=0;entryX=0.5;entryY=1;entryDx=0;entryDy=0;exitX=0.657;exitY=0.027;exitDx=0;exitDy=0;exitPerimeter=0;" edge="1" parent="1" source="Yqg7Q3kHyUWMkCjQQR5E-96" target="Yqg7Q3kHyUWMkCjQQR5E-98">
          <mxGeometry width="50" height="50" relative="1" as="geometry">
            <mxPoint x="1112" y="839" as="sourcePoint" />
            <mxPoint x="1065" y="810" as="targetPoint" />
          </mxGeometry>
        </mxCell>
        <mxCell id="Yqg7Q3kHyUWMkCjQQR5E-102" value="" style="endArrow=classic;html=1;rounded=0;entryX=0;entryY=0.5;entryDx=0;entryDy=0;exitX=1;exitY=0.438;exitDx=0;exitDy=0;exitPerimeter=0;" edge="1" parent="1" source="Yqg7Q3kHyUWMkCjQQR5E-68" target="Yqg7Q3kHyUWMkCjQQR5E-96">
          <mxGeometry width="50" height="50" relative="1" as="geometry">
            <mxPoint x="840" y="770" as="sourcePoint" />
            <mxPoint x="890" y="720" as="targetPoint" />
          </mxGeometry>
        </mxCell>
        <mxCell id="Yqg7Q3kHyUWMkCjQQR5E-103" value="Matches LicenseNumber from &quot;Fine_Details&quot; with NID &amp;amp; DOB from &quot;Owner_Details&quot;" style="text;html=1;align=center;verticalAlign=middle;whiteSpace=wrap;rounded=0;rotation=-5;fontStyle=1" vertex="1" parent="1">
          <mxGeometry x="554" y="470" width="340" height="30" as="geometry" />
        </mxCell>
        <mxCell id="Yqg7Q3kHyUWMkCjQQR5E-104" value="Matches LicenseNumber from &quot;Liocense_ExpiryDate&quot; with NID &amp;amp; DOB from &quot;Owner_Details&quot;" style="text;html=1;align=center;verticalAlign=middle;whiteSpace=wrap;rounded=0;rotation=0;fontStyle=1" vertex="1" parent="1">
          <mxGeometry x="645" y="557.5" width="325" height="28.75" as="geometry" />
        </mxCell>
        <mxCell id="Yqg7Q3kHyUWMkCjQQR5E-105" value="Direct To&amp;nbsp;" style="text;html=1;align=center;verticalAlign=middle;whiteSpace=wrap;rounded=0;fontStyle=1" vertex="1" parent="1">
          <mxGeometry x="940" y="830" width="60" height="30" as="geometry" />
        </mxCell>
        <mxCell id="Yqg7Q3kHyUWMkCjQQR5E-111" value="" style="endArrow=none;dashed=1;html=1;rounded=0;exitX=0.5;exitY=0;exitDx=0;exitDy=0;entryX=0;entryY=0.5;entryDx=0;entryDy=0;" edge="1" parent="1" source="Yqg7Q3kHyUWMkCjQQR5E-75" target="Yqg7Q3kHyUWMkCjQQR5E-110">
          <mxGeometry width="50" height="50" relative="1" as="geometry">
            <mxPoint x="400" y="550" as="sourcePoint" />
            <mxPoint x="1005" y="553" as="targetPoint" />
          </mxGeometry>
        </mxCell>
        <mxCell id="Yqg7Q3kHyUWMkCjQQR5E-110" value="" style="html=1;verticalLabelPosition=bottom;labelBackgroundColor=#ffffff;verticalAlign=top;shadow=0;dashed=0;strokeWidth=2;shape=mxgraph.ios7.misc.right;strokeColor=#0080f0;" vertex="1" parent="1">
          <mxGeometry x="1000" y="546.5" width="6" height="12" as="geometry" />
        </mxCell>
        <mxCell id="Yqg7Q3kHyUWMkCjQQR5E-122" value="" style="endArrow=none;dashed=1;html=1;dashPattern=1 3;strokeWidth=2;rounded=0;exitX=0.5;exitY=0;exitDx=0;exitDy=0;entryX=0.5;entryY=1;entryDx=0;entryDy=0;" edge="1" parent="1" source="Yqg7Q3kHyUWMkCjQQR5E-137" target="Yqg7Q3kHyUWMkCjQQR5E-23">
          <mxGeometry width="50" height="50" relative="1" as="geometry">
            <mxPoint x="400" y="550" as="sourcePoint" />
            <mxPoint x="850" y="460" as="targetPoint" />
            <Array as="points">
              <mxPoint x="900" y="490" />
            </Array>
          </mxGeometry>
        </mxCell>
        <mxCell id="Yqg7Q3kHyUWMkCjQQR5E-124" value="&lt;b&gt;Admin&lt;/b&gt;" style="ellipse;whiteSpace=wrap;html=1;" vertex="1" parent="1">
          <mxGeometry x="215" y="905" width="105" height="60" as="geometry" />
        </mxCell>
        <mxCell id="Yqg7Q3kHyUWMkCjQQR5E-125" value="" style="endArrow=classic;html=1;rounded=0;entryX=0.434;entryY=1.015;entryDx=0;entryDy=0;entryPerimeter=0;exitX=0;exitY=0.5;exitDx=0;exitDy=0;" edge="1" parent="1" source="Yqg7Q3kHyUWMkCjQQR5E-124" target="Yqg7Q3kHyUWMkCjQQR5E-52">
          <mxGeometry width="50" height="50" relative="1" as="geometry">
            <mxPoint x="440" y="810" as="sourcePoint" />
            <mxPoint x="490" y="760" as="targetPoint" />
            <Array as="points">
              <mxPoint x="-364" y="940" />
            </Array>
          </mxGeometry>
        </mxCell>
        <mxCell id="Yqg7Q3kHyUWMkCjQQR5E-126" value="&lt;b&gt;Enter ID &amp;amp; Password&lt;/b&gt;" style="ellipse;whiteSpace=wrap;html=1;aspect=fixed;" vertex="1" parent="1">
          <mxGeometry x="-120" y="693.75" width="80" height="80" as="geometry" />
        </mxCell>
        <mxCell id="Yqg7Q3kHyUWMkCjQQR5E-127" value="" style="endArrow=none;html=1;rounded=0;entryX=1;entryY=0.5;entryDx=0;entryDy=0;" edge="1" parent="1" target="Yqg7Q3kHyUWMkCjQQR5E-124">
          <mxGeometry width="50" height="50" relative="1" as="geometry">
            <mxPoint x="570" y="935" as="sourcePoint" />
            <mxPoint x="507" y="899" as="targetPoint" />
          </mxGeometry>
        </mxCell>
        <mxCell id="Yqg7Q3kHyUWMkCjQQR5E-128" value="" style="endArrow=classic;html=1;rounded=0;entryX=0.5;entryY=1;entryDx=0;entryDy=0;exitX=0.381;exitY=0.083;exitDx=0;exitDy=0;exitPerimeter=0;" edge="1" parent="1" source="Yqg7Q3kHyUWMkCjQQR5E-124" target="Yqg7Q3kHyUWMkCjQQR5E-126">
          <mxGeometry width="50" height="50" relative="1" as="geometry">
            <mxPoint x="255" y="900" as="sourcePoint" />
            <mxPoint x="415" y="770" as="targetPoint" />
            <Array as="points">
              <mxPoint x="-80" y="870" />
            </Array>
          </mxGeometry>
        </mxCell>
        <mxCell id="Yqg7Q3kHyUWMkCjQQR5E-129" value="Matches" style="rhombus;whiteSpace=wrap;html=1;fontStyle=1" vertex="1" parent="1">
          <mxGeometry x="-130" y="526.25" width="80" height="80" as="geometry" />
        </mxCell>
        <mxCell id="Yqg7Q3kHyUWMkCjQQR5E-130" value="" style="endArrow=classic;html=1;rounded=0;entryX=0.5;entryY=1;entryDx=0;entryDy=0;exitX=0.379;exitY=0.079;exitDx=0;exitDy=0;exitPerimeter=0;" edge="1" parent="1" source="Yqg7Q3kHyUWMkCjQQR5E-126" target="Yqg7Q3kHyUWMkCjQQR5E-129">
          <mxGeometry width="50" height="50" relative="1" as="geometry">
            <mxPoint x="-90" y="688.75" as="sourcePoint" />
            <mxPoint x="75" y="608.75" as="targetPoint" />
          </mxGeometry>
        </mxCell>
        <mxCell id="Yqg7Q3kHyUWMkCjQQR5E-131" value="" style="endArrow=classic;html=1;rounded=0;entryX=0;entryY=0.5;entryDx=0;entryDy=0;exitX=0;exitY=0.5;exitDx=0;exitDy=0;" edge="1" parent="1" source="Yqg7Q3kHyUWMkCjQQR5E-129" target="Yqg7Q3kHyUWMkCjQQR5E-126">
          <mxGeometry width="50" height="50" relative="1" as="geometry">
            <mxPoint x="-295" y="568.75" as="sourcePoint" />
            <mxPoint x="-290" y="698.75" as="targetPoint" />
            <Array as="points">
              <mxPoint x="-185" y="568.75" />
              <mxPoint x="-185" y="638.75" />
              <mxPoint x="-185" y="733.75" />
            </Array>
          </mxGeometry>
        </mxCell>
        <mxCell id="Yqg7Q3kHyUWMkCjQQR5E-132" value="&lt;b&gt;NO&lt;/b&gt;" style="text;html=1;align=center;verticalAlign=middle;whiteSpace=wrap;rounded=0;" vertex="1" parent="1">
          <mxGeometry x="-190" y="564.55" width="60" height="30" as="geometry" />
        </mxCell>
        <mxCell id="Yqg7Q3kHyUWMkCjQQR5E-133" value="&lt;b&gt;Please Try Again&lt;/b&gt;" style="text;html=1;align=center;verticalAlign=middle;whiteSpace=wrap;rounded=0;" vertex="1" parent="1">
          <mxGeometry x="-180" y="698.75" width="60" height="30" as="geometry" />
        </mxCell>
        <mxCell id="Yqg7Q3kHyUWMkCjQQR5E-138" value="" style="endArrow=none;dashed=1;html=1;dashPattern=1 3;strokeWidth=2;rounded=0;exitX=0.5;exitY=0;exitDx=0;exitDy=0;entryX=0.5;entryY=1;entryDx=0;entryDy=0;" edge="1" parent="1" source="Yqg7Q3kHyUWMkCjQQR5E-75" target="Yqg7Q3kHyUWMkCjQQR5E-137">
          <mxGeometry width="50" height="50" relative="1" as="geometry">
            <mxPoint x="400" y="550" as="sourcePoint" />
            <mxPoint x="900" y="410" as="targetPoint" />
            <Array as="points">
              <mxPoint x="900" y="490" />
            </Array>
          </mxGeometry>
        </mxCell>
        <mxCell id="Yqg7Q3kHyUWMkCjQQR5E-137" value="" style="html=1;verticalLabelPosition=bottom;labelBackgroundColor=#ffffff;verticalAlign=top;shadow=0;dashed=0;strokeWidth=2;shape=mxgraph.ios7.misc.up;strokeColor=#0080f0;" vertex="1" parent="1">
          <mxGeometry x="894" y="280" width="12" height="6" as="geometry" />
        </mxCell>
        <mxCell id="Yqg7Q3kHyUWMkCjQQR5E-139" value="&lt;b&gt;Can OVER-WRITE&lt;/b&gt;" style="ellipse;whiteSpace=wrap;html=1;aspect=fixed;" vertex="1" parent="1">
          <mxGeometry x="-130" y="390" width="80" height="80" as="geometry" />
        </mxCell>
        <mxCell id="Yqg7Q3kHyUWMkCjQQR5E-146" value="Fine_Details_FORM" style="rounded=0;whiteSpace=wrap;html=1;fontStyle=1" vertex="1" parent="1">
          <mxGeometry x="-155" y="249" width="140" height="60" as="geometry" />
        </mxCell>
        <mxCell id="Yqg7Q3kHyUWMkCjQQR5E-147" value="&lt;b&gt;Violation_Time&lt;/b&gt;" style="ellipse;whiteSpace=wrap;html=1;direction=south;" vertex="1" parent="1">
          <mxGeometry x="-225" y="139" width="90" height="60" as="geometry" />
        </mxCell>
        <mxCell id="Yqg7Q3kHyUWMkCjQQR5E-148" value="&lt;b&gt;Violation_Type&lt;/b&gt;" style="ellipse;whiteSpace=wrap;html=1;" vertex="1" parent="1">
          <mxGeometry x="-285" y="199" width="90" height="50" as="geometry" />
        </mxCell>
        <mxCell id="Yqg7Q3kHyUWMkCjQQR5E-149" value="&lt;b&gt;License_Num&lt;/b&gt;" style="ellipse;whiteSpace=wrap;html=1;fontStyle=4" vertex="1" parent="1">
          <mxGeometry x="-45" y="139" width="90" height="50" as="geometry" />
        </mxCell>
        <mxCell id="Yqg7Q3kHyUWMkCjQQR5E-150" value="" style="endArrow=none;html=1;rounded=0;exitX=0.61;exitY=1.032;exitDx=0;exitDy=0;entryX=0;entryY=0.5;entryDx=0;entryDy=0;exitPerimeter=0;" edge="1" parent="1" source="Yqg7Q3kHyUWMkCjQQR5E-148" target="Yqg7Q3kHyUWMkCjQQR5E-146">
          <mxGeometry width="50" height="50" relative="1" as="geometry">
            <mxPoint x="-265" y="334" as="sourcePoint" />
            <mxPoint x="-155" y="374" as="targetPoint" />
          </mxGeometry>
        </mxCell>
        <mxCell id="Yqg7Q3kHyUWMkCjQQR5E-151" value="" style="endArrow=none;html=1;rounded=0;entryX=0.109;entryY=0.047;entryDx=0;entryDy=0;entryPerimeter=0;exitX=0.968;exitY=0.325;exitDx=0;exitDy=0;exitPerimeter=0;" edge="1" parent="1" source="Yqg7Q3kHyUWMkCjQQR5E-147" target="Yqg7Q3kHyUWMkCjQQR5E-146">
          <mxGeometry width="50" height="50" relative="1" as="geometry">
            <mxPoint x="-199" y="179" as="sourcePoint" />
            <mxPoint x="-155" y="359" as="targetPoint" />
          </mxGeometry>
        </mxCell>
        <mxCell id="Yqg7Q3kHyUWMkCjQQR5E-152" value="" style="endArrow=none;html=1;rounded=0;exitX=0.5;exitY=1;exitDx=0;exitDy=0;entryX=0.5;entryY=0;entryDx=0;entryDy=0;" edge="1" parent="1" target="Yqg7Q3kHyUWMkCjQQR5E-146">
          <mxGeometry width="50" height="50" relative="1" as="geometry">
            <mxPoint x="-85" y="149" as="sourcePoint" />
            <mxPoint x="-145" y="369" as="targetPoint" />
          </mxGeometry>
        </mxCell>
        <mxCell id="Yqg7Q3kHyUWMkCjQQR5E-153" value="" style="endArrow=none;html=1;rounded=0;exitX=0.325;exitY=1.016;exitDx=0;exitDy=0;entryX=0.84;entryY=-0.047;entryDx=0;entryDy=0;entryPerimeter=0;exitPerimeter=0;" edge="1" parent="1" source="Yqg7Q3kHyUWMkCjQQR5E-149" target="Yqg7Q3kHyUWMkCjQQR5E-146">
          <mxGeometry width="50" height="50" relative="1" as="geometry">
            <mxPoint x="-25" y="189" as="sourcePoint" />
            <mxPoint x="-25" y="349" as="targetPoint" />
          </mxGeometry>
        </mxCell>
        <mxCell id="Yqg7Q3kHyUWMkCjQQR5E-154" value="" style="endArrow=none;dashed=1;html=1;dashPattern=1 3;strokeWidth=2;rounded=0;exitX=0.5;exitY=0;exitDx=0;exitDy=0;entryX=0.25;entryY=1;entryDx=0;entryDy=0;" edge="1" parent="1" target="Yqg7Q3kHyUWMkCjQQR5E-146">
          <mxGeometry width="50" height="50" relative="1" as="geometry">
            <mxPoint x="-138.00000000000023" y="309.99999999999943" as="sourcePoint" />
            <mxPoint x="-215" y="539" as="targetPoint" />
          </mxGeometry>
        </mxCell>
        <mxCell id="Yqg7Q3kHyUWMkCjQQR5E-156" value="&lt;b&gt;Location&lt;/b&gt;" style="ellipse;whiteSpace=wrap;html=1;" vertex="1" parent="1">
          <mxGeometry x="-130" y="110" width="80" height="50" as="geometry" />
        </mxCell>
        <mxCell id="Yqg7Q3kHyUWMkCjQQR5E-157" value="" style="endArrow=classic;html=1;rounded=0;entryX=0.5;entryY=1;entryDx=0;entryDy=0;exitX=0.5;exitY=0;exitDx=0;exitDy=0;" edge="1" parent="1" source="Yqg7Q3kHyUWMkCjQQR5E-129" target="Yqg7Q3kHyUWMkCjQQR5E-139">
          <mxGeometry width="50" height="50" relative="1" as="geometry">
            <mxPoint x="220" y="400" as="sourcePoint" />
            <mxPoint x="270" y="350" as="targetPoint" />
          </mxGeometry>
        </mxCell>
        <mxCell id="Yqg7Q3kHyUWMkCjQQR5E-158" value="" style="endArrow=classic;html=1;rounded=0;exitX=0.5;exitY=0;exitDx=0;exitDy=0;" edge="1" parent="1" source="Yqg7Q3kHyUWMkCjQQR5E-139">
          <mxGeometry width="50" height="50" relative="1" as="geometry">
            <mxPoint x="220" y="400" as="sourcePoint" />
            <mxPoint x="-90" y="309" as="targetPoint" />
          </mxGeometry>
        </mxCell>
        <mxCell id="Yqg7Q3kHyUWMkCjQQR5E-159" value="&lt;b&gt;Violation_FEE&lt;/b&gt;" style="ellipse;whiteSpace=wrap;html=1;direction=south;" vertex="1" parent="1">
          <mxGeometry x="30" y="195" width="90" height="60" as="geometry" />
        </mxCell>
        <mxCell id="Yqg7Q3kHyUWMkCjQQR5E-160" value="&lt;b&gt;Violation_FEE&lt;/b&gt;" style="ellipse;whiteSpace=wrap;html=1;direction=south;" vertex="1" parent="1">
          <mxGeometry x="1020" y="145" width="90" height="60" as="geometry" />
        </mxCell>
        <mxCell id="Yqg7Q3kHyUWMkCjQQR5E-161" value="" style="endArrow=none;html=1;rounded=0;exitX=1;exitY=1;exitDx=0;exitDy=0;entryX=1;entryY=0.5;entryDx=0;entryDy=0;" edge="1" parent="1" source="Yqg7Q3kHyUWMkCjQQR5E-159" target="Yqg7Q3kHyUWMkCjQQR5E-146">
          <mxGeometry width="50" height="50" relative="1" as="geometry">
            <mxPoint x="-6" y="200" as="sourcePoint" />
            <mxPoint x="-27" y="256" as="targetPoint" />
          </mxGeometry>
        </mxCell>
        <mxCell id="Yqg7Q3kHyUWMkCjQQR5E-162" value="" style="endArrow=none;html=1;rounded=0;exitX=1;exitY=1;exitDx=0;exitDy=0;entryX=1;entryY=0.25;entryDx=0;entryDy=0;" edge="1" parent="1" source="Yqg7Q3kHyUWMkCjQQR5E-160" target="Yqg7Q3kHyUWMkCjQQR5E-23">
          <mxGeometry width="50" height="50" relative="1" as="geometry">
            <mxPoint x="979" y="171" as="sourcePoint" />
            <mxPoint x="958" y="227" as="targetPoint" />
          </mxGeometry>
        </mxCell>
        <mxCell id="Yqg7Q3kHyUWMkCjQQR5E-163" value="" style="endArrow=classic;html=1;rounded=0;entryX=1;entryY=0.5;entryDx=0;entryDy=0;exitX=0;exitY=0.75;exitDx=0;exitDy=0;" edge="1" parent="1" source="Yqg7Q3kHyUWMkCjQQR5E-146" target="Yqg7Q3kHyUWMkCjQQR5E-23">
          <mxGeometry width="50" height="50" relative="1" as="geometry">
            <mxPoint x="470" y="310" as="sourcePoint" />
            <mxPoint x="520" y="260" as="targetPoint" />
            <Array as="points">
              <mxPoint x="-320" y="294" />
              <mxPoint x="-320" y="40" />
              <mxPoint x="1200" y="30" />
              <mxPoint x="1200" y="250" />
            </Array>
          </mxGeometry>
        </mxCell>
      </root>
    </mxGraphModel>
  </diagram>
</mxfile>
